HIERARCHY
ROOT Hips
{
	OFFSET 0.000000 0.000000 0.000000
	CHANNELS 6 Xposition Yposition Zposition Zrotation Yrotation Xrotation 
	JOINT LHipJoint
	{
		OFFSET 0.000000 0.000000 0.000000
		CHANNELS 3 Zrotation Yrotation Xrotation
		JOINT LeftUpLeg
		{
			OFFSET 1.363060 -1.794630 0.839290
			CHANNELS 3 Zrotation Yrotation Xrotation
			JOINT LeftLeg
			{
				OFFSET 2.448110 -6.726130 0.000000
				CHANNELS 3 Zrotation Yrotation Xrotation
				JOINT LeftFoot
				{
					OFFSET 2.562200 -7.039590 0.000000
					CHANNELS 3 Zrotation Yrotation Xrotation
					JOINT LeftToeBase
					{
						OFFSET 0.157640 -0.433110 2.322550
						CHANNELS 3 Zrotation Yrotation Xrotation
						End Site
						{
							OFFSET 0.000000 0.000000 0.000000
						}
					}
				}
			}
		}
	}
	JOINT RHipJoint
	{
		OFFSET 0.000000 0.000000 0.000000
		CHANNELS 3 Zrotation Yrotation Xrotation
		JOINT RightUpLeg
		{
			OFFSET -1.305520 -1.794630 0.839290
			CHANNELS 3 Zrotation Yrotation Xrotation
			JOINT RightLeg
			{
				OFFSET -2.542530 -6.985550 0.000000
				CHANNELS 3 Zrotation Yrotation Xrotation
				JOINT RightFoot
				{
					OFFSET -2.568260 -7.056230 0.000000
					CHANNELS 3 Zrotation Yrotation Xrotation
					JOINT RightToeBase
					{
						OFFSET -0.164730 -0.452590 2.363150
						CHANNELS 3 Zrotation Yrotation Xrotation
						End Site
						{
							OFFSET 0.000000 0.000000 0.000000
						}
					}
				}
			}
		}
	}
}
MOTION
Frames: 11
Frame Time: 0.008333
-1.945493 16.949033 -0.563458 8.250976 53.802159 18.950256 -11.138040 5.921272 -1.283706 -10.449752 23.980160 -9.553220 -1.836978 2.103811 32.785265 0.356456 -0.459602 9.374524 -0.172401 -0.000000 -78.015700 7.912666 -1.234161 6.165520 18.188552 8.680860 -23.011120 3.363302 2.671348 -2.640999 -1.383016 -5.485828 -6.042980 -0.846500 -0.000001 -6.343900
-1.838262 16.953021 -0.489249 7.560858 52.954133 18.327668 -11.267116 5.898540 -1.368740 -9.697876 24.334923 -10.327128 -1.672727 2.255196 34.890607 0.350998 -1.691079 11.030823 -0.574900 0.000000 -77.843600 7.819090 -1.264905 6.246296 18.522817 9.299076 -22.480674 3.419934 2.622448 -2.211599 -1.325954 -5.112683 -6.294369 -0.767801 0.000000 -3.005100
-1.735231 16.956266 -0.414054 6.952660 52.152915 17.789485 -11.372846 5.854813 -1.434743 -8.996273 24.517746 -11.130579 -1.510884 2.395580 37.018277 0.366299 -2.810349 12.523036 -1.000899 0.000000 -76.733000 7.739587 -1.285501 6.294568 18.862128 9.785128 -21.944080 3.482623 2.581024 -1.821210 -1.255833 -4.661190 -6.578943 -0.679900 0.000000 -0.010100
-1.636018 16.958753 -0.338160 6.413284 51.402723 17.329156 -11.455363 5.791239 -1.479353 -8.352661 24.520584 -11.968703 -1.352534 2.525588 39.146011 0.400044 -3.694778 13.785389 -1.389500 0.000000 -74.993200 7.671754 -1.296478 6.315620 19.201576 10.152837 -21.394231 3.550276 2.551429 -1.497296 -1.176109 -4.150721 -6.888721 179.411900 0.000000 -2.739100
-1.540382 16.960574 -0.261491 5.948986 50.705556 16.957792 -11.512777 5.711184 -1.498332 -7.790017 24.332084 -12.852319 -1.197947 2.647029 41.267184 0.447433 -4.227079 14.733451 -1.670500 0.000000 -72.370200 7.617606 -1.300150 6.313934 19.526432 10.403175 -20.842919 3.620651 2.533777 -1.247775 -1.086914 -3.589863 -7.198679 179.501800 0.000000 -5.128500
-1.447952 16.961982 -0.184162 5.548613 50.058807 16.667613 -11.547450 5.616424 -1.491679 -7.308706 23.962560 -13.782074 -1.045305 2.760464 43.352736 0.507342 -4.310127 15.355108 -1.785700 0.000000 -69.264600 7.575471 -1.297678 6.295296 19.831458 10.554192 -20.288276 3.691892 2.529737 -1.089090 -0.991487 -3.000252 -7.491916 179.585000 0.000000 -7.206400
-1.358407 16.963214 -0.106148 5.208538 49.455963 16.456441 -11.561034 5.508793 -1.459791 -6.911037 23.425649 -14.757225 -0.893222 2.865903 45.381329 0.580413 -3.881342 15.641228 -1.696900 0.000000 -65.988700 7.545542 -1.290664 6.264766 20.108718 10.620403 -19.735055 3.761698 2.538658 -1.024582 -0.891830 -2.397980 -7.750151 179.658100 -0.000000 -8.974400
-1.271529 16.964598 -0.027334 4.922432 48.885966 16.317668 -11.555854 5.389152 -1.404587 -6.591576 22.742121 -15.770085 -0.741192 2.962090 47.325727 0.670461 -2.922494 15.612562 -1.396001 0.000000 -62.611500 7.527502 -1.280187 6.227579 20.352692 10.622897 -19.185663 3.827682 2.559211 -1.053279 -0.790650 -1.802066 -7.958563 179.719200 0.000000 -10.448300
-1.187250 16.966427 0.052437 4.688724 48.334603 16.245846 -11.533167 5.258318 -1.329344 -6.343831 21.937134 -16.808132 -0.590612 3.047450 49.162476 0.782323 -1.457033 15.284281 -0.901500 0.000000 -59.184500 7.522574 -1.267245 6.187015 20.556898 10.578473 -18.644754 3.887423 2.588144 -1.161481 -0.689468 -1.223687 -8.107958 179.768200 -0.000000 -11.635400
-1.105456 16.968935 0.133248 4.498746 47.785324 16.230630 -11.494929 5.115936 -1.237491 -6.154860 21.038229 -17.855382 -0.443747 3.119181 50.856629 0.923360 0.460976 14.712610 -0.254300 0.000000 -56.018100 7.530035 -1.252051 6.148178 20.719034 10.516111 -18.113308 3.938855 2.622971 -1.337582 -0.591447 -0.680600 -8.195893 179.805900 0.000000 -12.610299
-1.026310 16.972227 0.215261 4.353834 47.221267 16.264555 -11.440700 4.962990 -1.133609 -6.016034 20.072214 -18.888253 -0.304372 3.175237 52.380038 1.098067 2.743795 13.934493 0.491600 -0.000000 -53.082700 7.552804 -1.235018 6.110330 20.833963 10.447050 -17.594066 3.979982 2.658211 -1.551106 -0.496747 -0.171472 -8.228070 179.834900 0.000000 -13.391600
